<svg viewBox="0 0 132.84 132.84" xmlns="http://www.w3.org/2000/svg"><g fill="#104a81"><path d="m58.17 84.17-1.84 1.06v-2.13z"/><path d="m71.08 84.98-1.42-.81 1.42-.82z"/><path d="m78.72 84.17-1.92 1.1v-2.21z"/><path d="m81.3 79.02-1.34-.77 1.34-.77z"/><path d="m89.01 66.42-1.99 1.15v-2.3z"/><path d="m81.27 55.31-1.26-.72 1.26-.73z"/><path d="m78.72 48.67-1.92 1.11v-2.22z"/><path d="m71.08 49.49-1.42-.82 1.42-.82z"/><path d="m58.17 48.67-1.84 1.07v-2.14z"/><path d="m50.56 61.27-1.34-.77 1.34-.77z"/><path d="m48.02 66.42-1.99 1.15v-2.3z"/><path d="m50.56 73.11-1.34-.78 1.34-.77z"/><path d="m61.39 91.87-3.1-1.79 3.1-1.79z"/><path d="m69.09 90.08-2.85 1.64v-3.28z"/><path d="m82.14 92.32-3.87-2.24 3.87-2.24z"/><path d="m89.54 78.25-2.79 1.61v-3.22z"/><path d="m92.13 74.12-3.1-1.79 3.1-1.78z"/><path d="m92.13 62.29-3.1-1.79 3.1-1.78z"/><path d="m89.5 54.59-2.72 1.57v-3.14z"/><path d="m82.11 44.93-3.77-2.17 3.77-2.18z"/><path d="m69.04 42.76-2.78 1.6v-3.21z"/><path d="m61.35 44.47-2.97-1.71 2.97-1.72z"/><path d="m51.1 50.39-2.97-1.72 2.97-1.72z"/><path d="m48.47 54.59-2.66 1.53v-3.07z"/><path d="m41.12 68.59-3.76-2.17 3.76-2.17z"/><path d="m48.51 78.25-2.72 1.57v-3.14z"/><path d="m51.1 85.88-2.97-1.71 2.97-1.72z"/><path d="m51.96 99.2-5.55-3.2 5.55-3.21z"/><path d="m60.14 96-4.79 2.76v-5.53z"/><path d="m72.05 98.5-4.34-2.5 4.34-2.51z"/><path d="m80.63 96-4.79 2.76v-5.53z"/><path d="m91.02 90.08-5.01 2.89v-5.78z"/><path d="m92.6 86.77-4.51-2.6 4.51-2.61z"/><path d="m101.12 72.33-4.79 2.77v-5.53z"/><path d="m103.12 69.5-5.34-3.08 5.34-3.08z"/><path d="m101.12 60.5-4.79 2.77v-5.53z"/><path d="m92.6 51.27-4.51-2.6 4.51-2.6z"/><path d="m90.95 42.76-4.9 2.83v-5.66z"/><path d="m80.63 36.84-4.79 2.76v-5.53z"/><path d="m72.05 39.34-4.34-2.5 4.34-2.51z"/><path d="m60.14 36.84-4.79 2.76v-5.53z"/><path d="m51.96 40.05-5.55-3.21 5.55-3.21z"/><path d="m49.96 42.76-4.9 2.83v-5.66z"/><path d="m41.35 57.16-4.45-2.57 4.45-2.57z"/><path d="m39.64 60.5-4.79 2.77v-5.53z"/><path d="m39.64 72.33-4.79 2.77v-5.53z"/><path d="m41.37 80.85-4.51-2.6 4.51-2.6z"/><path d="m50 90.08-4.96 2.86v-5.72z"/><path d="m51.06 101.91-6.55 3.78v-7.56z"/><path d="m62.3 105.27-5.82-3.36 5.82-3.36z"/><path d="m71 101.91-5.72 3.3v-6.6z"/><path d="m82.93 105.52-6.24-3.61 6.24-3.6z"/><path d="m92.05 101.91-6.55 3.78v-7.56z"/><path d="m93.19 99.63-6.29-3.63 6.29-3.63z"/><path d="m101.84 84.17-5.87 3.39v-6.78z"/><path d="m103.28 81.61-5.81-3.36 5.81-3.36z"/><path d="m112.54 66.42-6.55 3.78v-7.56z"/><path d="m103.28 57.95-5.81-3.36 5.81-3.36z"/><path d="m101.84 48.67-5.87 3.39v-6.78z"/><path d="m93.19 40.47-6.29-3.63 6.29-3.63z"/><path d="m92.05 30.92-6.55 3.78v-7.56z"/><path d="m82.91 34.49-6.18-3.57 6.18-3.57z"/><path d="m70.93 30.92-5.61 3.24v-6.47z"/><path d="m62.28 34.25-5.77-3.33 5.77-3.33z"/><path d="m51.06 30.92-6.55 3.78v-7.56z"/><path d="m41.86 46.21-5.98-3.45 5.98-3.46z"/><path d="m40.36 48.67-5.87 3.39v-6.78z"/><path d="m31.66 64.04-6.13-3.54 6.13-3.54z"/><path d="m30.57 66.42-6.55 3.78v-7.56z"/><path d="m31.66 75.88-6.13-3.55 6.13-3.54z"/><path d="m40.36 84.17-5.87 3.39v-6.78z"/><path d="m41.88 93.56-6.04-3.48 6.04-3.48z"/><path d="m52.33 111.67-6.65-3.84 6.65-3.84z"/><path d="m61.38 107.83-6.65 3.84v-7.68z"/><path d="m72.79 111.61-6.55-3.78 6.55-3.78z"/><path d="m81.87 107.83-6.65 3.84v-7.68z"/><path d="m93.21 111.49-6.34-3.66 6.34-3.66z"/><path d="m102.33 96-6.6 3.81v-7.62z"/><path d="m103.54 93.89-6.6-3.81 6.6-3.81z"/><path d="m112.61 78.25-6.65 3.84v-7.68z"/><path d="m113.79 76.14-6.6-3.81 6.6-3.81z"/><path d="m113.79 64.31-6.6-3.81 6.6-3.81z"/><path d="m112.61 54.59-6.65 3.84v-7.68z"/><path d="m103.54 46.57-6.6-3.81 6.6-3.81z"/><path d="m102.33 36.84-6.6 3.81v-7.62z"/><path d="m93.21 28.67-6.34-3.66 6.34-3.66z"/><path d="m81.87 25.01-6.65 3.84v-7.68z"/><path d="m72.79 28.79-6.55-3.78 6.55-3.78z"/><path d="m61.38 25.01-6.65 3.84v-7.68z"/><path d="m52.33 28.85-6.65-3.84 6.65-3.84z"/><path d="m42.06 34.73-6.59-3.81 6.59-3.81z"/><path d="m40.85 36.84-6.6 3.81v-7.62z"/><path d="m31.82 52.48-6.6-3.81 6.6-3.81z"/><path d="m30.64 54.59-6.65 3.84v-7.68z"/><path d="m21.49 70.08-6.35-3.66 6.35-3.66z"/><path d="m30.64 78.25-6.65 3.84v-7.68z"/><path d="m31.82 87.98-6.6-3.81 6.6-3.81z"/><path d="m40.85 96-6.6 3.81v-7.62z"/><path d="m42.06 105.72-6.59-3.81 6.59-3.81z"/><path d="m41.48 116.54-4.85-2.79 4.85-2.8z"/><path d="m50.43 113.75-5.6 3.23v-6.47z"/><path d="m62.45 117.38-6.29-3.63 6.29-3.64z"/><path d="m71.42 113.75-6.34 3.66v-7.33z"/><path d="m82.88 117.26-6.08-3.51 6.08-3.52z"/><path d="m91.42 113.75-5.61 3.23v-6.47z"/><path d="m101.67 107.83-5.61 3.24v-6.48z"/><path d="m103.37 105.42-6.08-3.51 6.08-3.51z"/><path d="m112.44 90.08-6.4 3.69v-7.38z"/><path d="m113.7 87.83-6.34-3.66 6.34-3.67z"/><path d="m122.19 72.33-5.66 3.27v-6.53z"/><path d="m123.49 69.28-4.96-2.86 4.96-2.86z"/><path d="m122.19 60.5-5.66 3.27v-6.54z"/><path d="m113.7 52.33-6.34-3.66 6.34-3.66z"/><path d="m112.44 42.76-6.4 3.69v-7.39z"/><path d="m103.39 34.47-6.14-3.55 6.14-3.54z"/><path d="m101.67 25.01-5.61 3.23v-6.47z"/><path d="m91.49 19.09-5.71 3.3v-6.6z"/><path d="m82.9 22.63-6.14-3.54 6.14-3.54z"/><path d="m71.45 19.09-6.39 3.69v-7.38z"/><path d="m62.49 22.78-6.4-3.69 6.4-3.69z"/><path d="m50.5 19.09-5.71 3.3v-6.6z"/><path d="m41.52 21.95-4.96-2.86 4.96-2.86z"/><path d="m40.19 25.01-5.61 3.23v-6.47z"/><path d="m31.73 40.5-6.34-3.66 6.34-3.66z"/><path d="m30.46 42.76-6.39 3.69v-7.39z"/><path d="m21.42 58.13-6.14-3.54 6.14-3.54z"/><path d="m19.73 60.5-5.66 3.27v-6.54z"/><path d="m19.73 72.33-5.66 3.27v-6.53z"/><path d="m21.4 81.76-6.08-3.51 6.08-3.51z"/><path d="m30.46 90.08-6.39 3.69v-7.38z"/><path d="m31.73 99.66-6.34-3.66 6.34-3.66z"/><path d="m40.19 107.83-5.61 3.24v-6.48z"/><path d="m38.47 119.66-3.03 1.75v-3.5z"/><path d="m51.63 122.3-4.56-2.64 4.56-2.63z"/><path d="m60.28 119.66-5.01 2.89v-5.78z"/><path d="m72.35 122.68-5.23-3.02 5.23-3.02z"/><path d="m80.78 119.66-5.01 2.89v-5.78z"/><path d="m92.39 121.9-3.88-2.24 3.88-2.24z"/><path d="m99.95 119.66-3.03 1.75v-3.5z"/><path d="m102.64 115.98-3.88-2.23 3.88-2.24z"/><path d="m111.48 101.91-4.96 2.87v-5.73z"/><path d="m113.33 99.02-5.23-3.02 5.23-3.02z"/><path d="m121.8 84.17-5.07 2.92v-5.85z"/><path d="m123.38 80.92-4.63-2.67 4.63-2.67z"/><path d="m130.81 66.42-3.22 1.86v-3.72z"/><path d="m123.38 57.26-4.63-2.67 4.63-2.67z"/><path d="m121.8 48.67-5.07 2.93v-5.85z"/><path d="m113.33 39.86-5.23-3.02 5.23-3.02z"/><path d="m111.52 30.92-5.02 2.9v-5.79z"/><path d="m102.66 21.36-3.94-2.27 3.94-2.27z"/><path d="m99.95 13.18-3.03 1.75v-3.51z"/><path d="m92.39 15.41-3.88-2.23 3.88-2.24z"/><path d="m80.78 13.18-5.01 2.89v-5.79z"/><path d="m72.35 16.2-5.23-3.02 5.23-3.02z"/><path d="m60.28 13.18-5.01 2.89v-5.79z"/><path d="m51.63 15.81-4.56-2.63 4.56-2.64z"/><path d="m38.47 13.18-3.03 1.75v-3.51z"/><path d="m31.14 27.64-4.57-2.63 4.57-2.64z"/><path d="m29.58 30.92-5.07 2.93v-5.85z"/><path d="m21.11 45.77-5.23-3.01 5.23-3.02z"/><path d="m19.33 48.67-5.06 2.93v-5.85z"/><path d="m10.48 62.84-4.06-2.34 4.06-2.34z"/><path d="m7.9 66.42-3.28 1.89v-3.79z"/><path d="m10.48 74.67-4.06-2.34 4.06-2.34z"/><path d="m19.33 84.17-5.06 2.92v-5.85z"/><path d="m21.1 93.07-5.18-2.99 5.18-2.99z"/><path d="m29.51 101.91-4.96 2.87v-5.73z"/><path d="m31.14 110.47-4.57-2.64 4.57-2.64z"/><path d="m40.57 126.81-2.12-1.23 2.12-1.23z"/><path d="m48.55 125.58-2.78 1.6v-3.21z"/><path d="m61.57 127.68-3.64-2.1 3.64-2.11z"/><path d="m69.7 125.58-3.76 2.17v-4.34z"/><path d="m81.97 127.51-3.35-1.93 3.35-1.93z"/><path d="m89.54 125.58-2.79 1.6v-3.21z"/><path d="m101.84 126.44-1.49-.86 1.49-.86z"/><path d="m109.94 113.75-2.65 1.53v-3.07z"/><path d="m112.66 109.69-3.22-1.86 3.22-1.86z"/><path d="m120.89 96-3.7 2.14v-4.28z"/><path d="m123.03 92.15-3.58-2.07 3.58-2.07z"/><path d="m130.61 78.25-2.91 1.68v-3.36z"/><path d="m132.84 73.64-2.26-1.31 2.26-1.3z"/><path d="m132.84 61.81-2.26-1.31 2.26-1.3z"/><path d="m130.61 54.59-2.91 1.68v-3.36z"/><path d="m123.05 44.86-3.64-2.1 3.64-2.11z"/><path d="m120.89 36.84-3.7 2.14v-4.28z"/><path d="m112.66 26.87-3.22-1.86 3.22-1.86z"/><path d="m110.03 19.09-2.78 1.61v-3.22z"/><path d="m101.86 8.16-1.56-.9 1.56-.9z"/><path d="m89.62 7.26-2.91 1.68v-3.36z"/><path d="m81.98 9.22-3.4-1.96 3.4-1.97z"/><path d="m69.78 7.26-3.88 2.24v-4.48z"/><path d="m61.61 9.43-3.76-2.17 3.76-2.17z"/><path d="m48.63 7.26-2.9 1.68v-3.36z"/><path d="m40.6 8.53-2.2-1.27 2.2-1.27z"/><path d="m30.33 14.4-2.13-1.22 2.13-1.23z"/><path d="m28.06 19.09-2.79 1.61v-3.22z"/><path d="m20.57 32.99-3.59-2.07 3.59-2.06z"/><path d="m18.42 36.84-3.7 2.14v-4.28z"/><path d="m10.24 50.6-3.34-1.93 3.34-1.93z"/><path d="m7.65 54.59-2.91 1.68v-3.36z"/><path d="m1.56 67.32-1.56-.9 1.56-.9z"/><path d="m7.65 78.25-2.91 1.68v-3.36z"/><path d="m10.24 86.1-3.34-1.93 3.34-1.93z"/><path d="m18.42 96-3.7 2.14v-4.28z"/><path d="m20.53 103.91-3.47-2 3.47-2z"/><path d="m27.97 113.75-2.65 1.53v-3.07z"/><path d="m30.33 120.89-2.13-1.23 2.13-1.23z"/><path d="m50.7 132.52-1.78-1.03 1.78-1.02z"/><path d="m58.36 131.49-2.13 1.23v-2.46z"/><path d="m71.38 132.84-2.33-1.35 2.33-1.34z"/><path d="m78.85 131.49-2.12 1.23v-2.46z"/><path d="m91.52 132.22-1.26-.73 1.26-.73z"/><path d="m112.01 120.39-1.26-.73 1.26-.73z"/><path d="m119.75 107.83-1.99 1.15v-2.3z"/><path d="m122.55 103.14-2.13-1.23 2.13-1.22z"/><path d="m129.99 90.08-1.99 1.15v-2.3z"/><path d="m132.65 85.15-1.7-.98 1.7-.99z"/><path d="m132.65 49.66-1.7-.99 1.7-.98z"/><path d="m130.04 42.76-2.06 1.18v-2.37z"/><path d="m122.57 32.19-2.2-1.27 2.2-1.26z"/><path d="m119.75 25.01-1.99 1.15v-2.3z"/><path d="m112.01 13.9-1.26-.72 1.26-.73z"/><path d="m91.52 2.07-1.26-.73 1.26-.72z"/><path d="m78.85 1.34-2.12 1.23v-2.45z"/><path d="m71.38 2.69-2.33-1.35 2.33-1.34z"/><path d="m58.36 1.34-2.13 1.23v-2.45z"/><path d="m50.7 2.37-1.78-1.03 1.78-1.02z"/><path d="m19.92 20.04-1.64-.95 1.64-.94z"/><path d="m17.28 25.01-1.99 1.15v-2.3z"/><path d="m9.86 38.11-2.2-1.27 2.2-1.27z"/><path d="m7.08 42.76-2.06 1.18v-2.37z"/><path d="m1.49 55.36-1.34-.77 1.34-.78z"/><path d="m1.49 79.02-1.34-.77 1.34-.77z"/><path d="m7.04 90.08-1.99 1.15v-2.3z"/><path d="m9.86 97.26-2.2-1.26 2.2-1.27z"/><path d="m17.28 107.83-1.99 1.15v-2.3z"/><path d="m19.92 114.69-1.64-.94 1.64-.95z"/><path d="m130.04 30.92-1.71.99v-1.98z"/></g></svg>