<svg xmlns="http://www.w3.org/2000/svg" xmlns:xlink="http://www.w3.org/1999/xlink" width="1012" height="678" style="background-color:transparent" xmlns:v="https://vecta.io/nano"><style><![CDATA[.B{fill:none}.C{stroke-width:2}.D{stroke:#00579bff}.E{stroke-linecap:none}.F{font-family:Montserrat,NeverMind,NeverMind,Microsoft YaHei,PingFang SC,Microsoft JhengHei,sans-serif}.G{cursor:default}.H{fill:#eeeeeeff}.I{font-size:14px}.J{font-weight:400}.K{fill:#19a719ff}.L{opacity:0}.M{stroke-linecap:round}.N{stroke:#2196f3}.O{stroke-width:3}.P{fill:#7986cbff}]]></style><g transform="translate(208 382.25)"><g mask="url(#A)" class="B M"><path d="M49.173 0h0Q81.139-164.25 209-164.25" class="N O"/><path d="M360-164.25q6.5 0 6.5-6.5v-138q0-6.5 6.5-6.5" class="C N"/><path stroke="#1e88e5" d="M49.173 0h0Q81.139 164.25 209 164.25" class="O"/><path stroke="#1e88e5" d="M358 164.25q6.5 0 6.5-6.5v-51.5q0-6.5 6.5-6.5m-13 64.5q6.5 0 6.5 6.5v51.5q0 6.5 6.5 6.5m169 0h53" class="C"/><path d="M360-164.25q6.5 0 6.5 6.5v138q0 6.5 6.5 6.5m86 0h0c39.75 0 26.5-44 53-44" class="C N"/><path d="M459-13.25h53" class="C N"/><path d="M459-13.25h0c39.75 0 26.5 44 53 44" class="C N"/></g><path fill="#1a227eff" d="M-123.25-32.5c-44.333 0-44.333 66.5 0 66.5h248c44.333 0 44.333-66.5 0-66.5h-248"/><path d="M-123.25-32.5c-44.333 0-44.333 66.5 0 66.5h248c44.333 0 44.333-66.5 0-66.5h-248" class="B D E O"/><text fill="#fff" text-anchor="middle" font-size="24" font-weight="600" transform="translate(0 -16)" class="F G"><tspan dy="24" style="white-space:pre" x="0">‎Property Animation</tspan></text><path d="M351-189.25h38v50h-38z" class="L"/><path fill="#0288d1ff" d="M233.75-187.75c-32.333 0-32.333 48.5 0 48.5h89c32.333 0 32.333-48.5 0-48.5h-89"/><path d="M233.75-187.75c-32.333 0-32.333 48.5 0 48.5h89c32.333 0 32.333-48.5 0-48.5h-89" class="B D E O"/><text font-size="18" font-weight="500" transform="translate(236 -176.25)" class="F G H"><tspan dy="18" style="white-space:pre" x="0">‎Attribute</tspan></text><path d="M389-294.25h98v48h-98z" class="L"/><path d="M386-294.25h104v48H386z" class="L"/><path d="M386-294.25h104v48H386z" class="L"/><path d="M406.5-331.25c-22 0-22 33 0 33h64c22 0 22-33 0-33h-64" class="K"/><path d="M406.5-331.25c-22 0-22 33 0 33h64c22 0 22-33 0-33h-64" class="B C D E"/><text transform="translate(408 -324.25)" class="F G H I"><tspan font-weight="normal" dy="14" style="white-space:pre" x="0">‎duration</tspan></text><path d="M349 139.25h38v50h-38z" class="L"/><path fill="#0288d1ff" d="M233.75 140.75c-32.333 0-32.333 48.5 0 48.5h87c32.333 0 32.333-48.5 0-48.5h-87"/><path d="M233.75 140.75c-32.333 0-32.333 48.5 0 48.5h87c32.333 0 32.333-48.5 0-48.5h-87" class="B D E O"/><text font-size="18" font-weight="500" transform="translate(236 152.25)" class="F G H"><tspan dy="18" style="white-space:pre" x="0">‎Function</tspan></text><use xlink:href="#B" class="K"/><use xlink:href="#B" class="B C D E"/><text transform="translate(406 90.75)" class="F G H I"><tspan font-weight="normal" dy="14" style="white-space:pre" x="0">‎seek(time)</tspan></text><path d="M372.5-251.25h104v48h-104z" class="L"/><path d="M372.5-251.25h104v48h-104z" class="L"/><path d="M406.5-288.25c-22 0-22 33 0 33h37c22 0 22-33 0-33h-37" class="K"/><path d="M406.5-288.25c-22 0-22 33 0 33h37c22 0 22-33 0-33h-37" class="B C D E"/><text transform="translate(408 -281.25)" class="F G H I"><tspan font-weight="normal" dy="14" style="white-space:pre" x="0">‎time</tspan></text><path d="M395.5-208.25h98v48h-98z" class="L"/><path d="M406.5-245.25c-22 0-22 33 0 33h77c22 0 22-33 0-33h-77" class="K"/><path d="M406.5-245.25c-22 0-22 33 0 33h77c22 0 22-33 0-33h-77" class="B C D E"/><text transform="translate(408 -238.25)" class="F G H I"><tspan font-weight="normal" dy="14" style="white-space:pre" x="0">‎frameRate</tspan></text><use xlink:href="#B" x="2" y="-286" class="K"/><use xlink:href="#B" x="2" y="-286" class="B C D E"/><text transform="translate(408 -195.25)" class="F G H I"><tspan font-weight="normal" dy="14" style="white-space:pre" x="0">‎isAutoPlay</tspan></text><path d="M406.5-159.25c-22 0-22 33 0 33h80c22 0 22-33 0-33h-80" class="K"/><path d="M406.5-159.25c-22 0-22 33 0 33h80c22 0 22-33 0-33h-80" class="B C D E"/><text transform="translate(408 -152.25)" class="F G H I"><tspan font-weight="normal" dy="14" style="white-space:pre" x="0">‎defaultClip</tspan></text><path d="M406.5-116.25c-22 0-22 33 0 33h82c22 0 22-33 0-33h-82" class="K"/><path d="M406.5-116.25c-22 0-22 33 0 33h82c22 0 22-33 0-33h-82" class="B C D E"/><text transform="translate(408 -109.25)" class="F G H I"><tspan font-weight="normal" dy="14" style="white-space:pre" x="0">‎currentClip</tspan></text><path d="M404.5 126.75c-22 0-22 33 0 33h43c22 0 22-33 0-33h-43" class="K"/><path d="M404.5 126.75c-22 0-22 33 0 33h43c22 0 22-33 0-33h-43" class="B C D E"/><text transform="translate(406 133.75)" class="F G H I"><tspan font-weight="normal" dy="14" style="white-space:pre" x="0">‎stop()</tspan></text><path d="M404.5 169.75c-22 0-22 33 0 33h109c22 0 22-33 0-33h-109" class="K"/><path d="M404.5 169.75c-22 0-22 33 0 33h109c22 0 22-33 0-33h-109" class="B C D E"/><text transform="translate(406 176.75)" class="F G H I"><tspan font-weight="normal" dy="14" style="white-space:pre" x="0">‎play(clipName)</tspan></text><path d="M544 211.75h48v34h-48z" class="L"/><path d="M404.5 212.75c-22 0-22 33 0 33h119c22 0 22-33 0-33h-119" class="K"/><path d="M404.5 212.75c-22 0-22 33 0 33h119c22 0 22-33 0-33h-119" class="B C D E"/><text transform="translate(406 219.75)" class="F G H I"><tspan font-weight="normal" dy="14" style="white-space:pre" x="0">‎appendClip(clip)</tspan></text><path d="M609.5 212.75c-22 0-22 33 0 33h128c22 0 22-33 0-33h-128" class="P"/><path d="M609.5 212.75c-22 0-22 33 0 33h128c22 0 22-33 0-33h-128" class="B C D E"/><text transform="translate(611 219.75)" class="F G H I"><tspan font-weight="normal" dy="14" style="white-space:pre" x="0">‎PropertyAnimClip</tspan></text><path d="M463-30.25h48v34h-48z" class="L"/><path d="M406.5-29.25c-22 0-22 33 0 33h36c22 0 22-33 0-33h-36" class="K"/><path d="M406.5-29.25c-22 0-22 33 0 33h36c22 0 22-33 0-33h-36" class="B C D E"/><text transform="translate(408 -22.25)" class="F G H I"><tspan font-weight="normal" dy="14" style="white-space:pre" x="0">‎clips</tspan></text><use xlink:href="#C" class="P"/><use xlink:href="#C" class="B C D E"/><text transform="translate(530 -66.25)" class="F G H I"><tspan font-weight="normal" dy="14" style="white-space:pre" x="0">‎clip</tspan></text><use xlink:href="#C" y="44" class="P"/><use xlink:href="#C" y="44" class="B C D E"/><text transform="translate(530 -22.25)" class="F G H I"><tspan font-weight="normal" dy="14" style="white-space:pre" x="0">‎clip</tspan></text><path d="M528.5 14.75c-22 0-22 33 0 33h22c22 0 22-33 0-33h-22" class="P"/><path d="M528.5 14.75c-22 0-22 33 0 33h22c22 0 22-33 0-33h-22" class="B C D E"/><text transform="translate(530 21.75)" class="F G H I"><tspan font-weight="normal" dy="14" style="white-space:pre" x="0">‎......</tspan></text></g><defs><mask id="A" maskUnits="userSpaceOnUse" x="-1000%" y="-1000%" width="2000%" height="2000%"><path fill="#fff" d="M-10120-6780h20240V6780h-20240z"/><path fill="#000" d="M-123.25-32.5c-44.333 0-44.333 66.5 0 66.5h248c44.333 0 44.333-66.5 0-66.5h-248"/></mask><path id="B" d="M404.5 83.75c-22 0-22 33 0 33h76c22 0 22-33 0-33h-76"/><path id="C" d="M528.5-73.25c-22 0-22 33 0 33h30c22 0 22-33 0-33h-30"/></defs></svg>