<svg xmlns="http://www.w3.org/2000/svg" xmlns:xlink="http://www.w3.org/1999/xlink" width="663" height="383" style="background-color:transparent" xmlns:v="https://vecta.io/nano"><style><![CDATA[.B{fill:none}.C{stroke-linecap:none}.D{font-family:Montserrat,NeverMind,NeverMind,Microsoft YaHei,PingFang SC,Microsoft JhengHei,sans-serif}.E{cursor:default}.F{stroke-width:2}.G{stroke:#00579bff}.H{fill:#ffffffff}.I{font-size:12px}.J{font-weight:400}.K{stroke:#0288d1ff}.L{fill:#1a227eff}.M{stroke-width:3}.N{font-size:18px}.O{font-weight:500}.P{fill:#42b883ff}.Q{stroke-dasharray:none}.R{stroke:none}.S{fill:#00897b}]]></style><g stroke-linecap="round" class="B F K"><path d="M192.069 191.814h0c-36.75 0-24.5-18-49-18"/><path d="M192.069 191.814h0c-36.75 0-24.5 18-49 18m49.083 89.994h0c-36.75 0-24.5-18-49-18"/><path d="M192.152 299.808h0c-36.75 0-24.5 18-49 18m328.178-16.925h0c36.75 0 24.5-18 49-18"/><path d="M471.33 300.883h0c36.75 0 24.5 18 49 18m-49.399-126.807h0c36.75 0 24.5-36 49-36"/><path d="M470.931 192.076h49"/><path d="M470.931 192.076h0c36.75 0 24.5 36 49 36"/></g><path d="M309.962 51.617c-35 0-35 52.5 0 52.5h50c35 0 35-52.5 0-52.5h-50" class="L"/><path d="M309.962 51.617c-35 0-35 52.5 0 52.5h50c35 0 35-52.5 0-52.5h-50" class="B C G M"/><text fill="#fff" text-anchor="middle" font-weight="600" transform="translate(334.212 65.117)" class="D E N"><tspan dy="18" style="white-space:pre" x="0">‎Root</tspan></text><path opacity="0" d="M144.069 167.814h44v48h-44z"/><use xlink:href="#E" class="L"/><use xlink:href="#E" class="B C G M"/><text fill="#fff" transform="translate(219.069 179.814)" class="D E N O"><tspan dy="18" style="white-space:pre" x="0">‎Entity</tspan></text><use xlink:href="#F" class="P"/><use xlink:href="#F" class="B C F G"/><text transform="translate(59.069 165.814)" class="D E H I"><tspan font-weight="normal" dy="12" style="white-space:pre" x="0">‎Component 1</tspan></text><use xlink:href="#G" fill="#7986cbff"/><use xlink:href="#G" class="B C F G"/><text transform="translate(56.069 201.814)" class="D E H I"><tspan font-weight="normal" dy="12" style="white-space:pre" x="0">‎Component 2</tspan></text><path opacity="0" d="M144.152 275.808h44v48h-44z"/><use xlink:href="#E" x="0.083" y="107.994" class="L"/><use xlink:href="#E" x="0.083" y="107.994" class="B C G M"/><text fill="#fff" transform="translate(219.152 287.808)" class="D E N O"><tspan dy="18" style="white-space:pre" x="0">‎Entity</tspan></text><use xlink:href="#H" class="P"/><use xlink:href="#H" class="B C F G"/><text transform="translate(62.152 273.808)" class="D E H I"><tspan font-weight="normal" dy="12" style="white-space:pre" x="0">‎Component1</tspan></text><use xlink:href="#F" x="0.083" y="143.994" fill="#666666ff"/><use xlink:href="#F" x="0.083" y="143.994" class="B C F K"/><text transform="translate(59.152 309.808)" class="D E H I"><tspan font-weight="normal" dy="12" style="white-space:pre" x="0">‎Component4</tspan></text><path opacity="0" d="M475.33 276.883h44v48h-44z"/><use xlink:href="#E" x="171.261" y="109.069" class="L"/><use xlink:href="#E" x="171.261" y="109.069" class="B C G M"/><text fill="#fff" transform="translate(390.33 288.883)" class="D E N O"><tspan dy="18" style="white-space:pre" x="0">‎Entity</tspan></text><use xlink:href="#H" x="463.178" y="1.075" class="P"/><use xlink:href="#H" x="463.178" y="1.075" class="B C F G"/><text transform="translate(525.33 274.883)" class="D E H I"><tspan font-weight="normal" dy="12" style="white-space:pre" x="0">‎Component1</tspan></text><use xlink:href="#F" x="466.261" y="145.069" fill="#05a8f4ff"/><use xlink:href="#F" x="466.261" y="145.069" class="B C F K"/><text transform="translate(525.33 310.883)" class="D E H I"><tspan font-weight="normal" dy="12" style="white-space:pre" x="0">‎Component3</tspan></text><path opacity="0" d="M474.931 168.076h44v48h-44z"/><use xlink:href="#E" x="170.862" y="0.262" class="L"/><use xlink:href="#E" x="170.862" y="0.262" class="B C G M"/><text fill="#fff" transform="translate(389.931 180.076)" class="D E N O"><tspan dy="18" style="white-space:pre" x="0">‎Entity</tspan></text><use xlink:href="#F" x="465.862" y="-17.738" class="P"/><use xlink:href="#F" x="465.862" y="-17.738" class="B C F G"/><text transform="translate(524.931 148.076)" class="D E H I"><tspan font-weight="normal" dy="12" style="white-space:pre" x="0">‎Component 1</tspan></text><use xlink:href="#G" x="468.862" y="-17.738" fill="#05a8f4ff"/><use xlink:href="#G" x="468.862" y="-17.738" class="B C F K"/><text transform="translate(524.931 184.076)" class="D E H I"><tspan font-weight="normal" dy="12" style="white-space:pre" x="0">‎Component 3</tspan></text><use xlink:href="#G" x="468.862" y="18.262" fill="#666666ff"/><use xlink:href="#G" x="468.862" y="18.262" class="B C F K"/><text transform="translate(524.931 220.076)" class="D E H I"><tspan font-weight="normal" dy="12" style="white-space:pre" x="0">‎Component 4</tspan></text><g stroke="#00897b" stroke-dasharray="9, 3" class="B F"><path marker-start="url(#DE)" marker-end="url(#A)" d="M273.94 167.27c14.625-8.371 38.267-37.287 41.177-50.148"/><path marker-start="url(#DK)" marker-end="url(#B)" d="M245.596 271.884l-.051-42.598"/><path marker-start="url(#DQ)" marker-end="url(#C)" d="M415.178 273.099l.47-43.544"/><path marker-start="url(#DW)" marker-end="url(#D)" d="M408.991 166.859c-26.955-20.896-21.024-15.272-52.609-53.523"/></g><defs><marker id="A" markerWidth="8" markerHeight="8" refX="2" refY="4" viewBox="0 0 8 8" orient="auto"><path d="M2 2l4 2-4 2" class="Q R S"/></marker><marker id="B" markerWidth="8" markerHeight="8" refX="2" refY="4" viewBox="0 0 8 8" orient="auto"><path d="M2 2l4 2-4 2" class="Q R S"/></marker><marker id="C" markerWidth="8" markerHeight="8" refX="2" refY="4" viewBox="0 0 8 8" orient="auto"><path d="M2 2l4 2-4 2" class="Q R S"/></marker><marker id="D" markerWidth="8" markerHeight="8" refX="2" refY="4" viewBox="0 0 8 8" orient="auto"><path d="M2 2l4 2-4 2" class="Q R S"/></marker><path id="E" d="M216.819 169.314c-31 0-31 46.5 0 46.5h60c31 0 31-46.5 0-46.5h-60"/><path id="F" d="M62.069 160.814h74q8 0 8 8v11q0 8-8 8h-74q-8 0-8-8v-11q0-8 8-8"/><path id="G" d="M59.069 196.814h77q8 0 8 8v11q0 8-8 8h-77q-8 0-8-8v-11q0-8 8-8"/><path id="H" d="M65.152 268.808h71q8 0 8 8v11q0 8-8 8h-71q-8 0-8-8v-11q0-8 8-8"/></defs></svg>