<svg xmlns="http://www.w3.org/2000/svg" width="721" height="331" style="background-color:transparent" xmlns:v="https://vecta.io/nano"><style><![CDATA[.B{fill:none}.C{stroke-width:2}.D{font-family:Montserrat,NeverMind,NeverMind,Microsoft YaHei,PingFang SC,Microsoft JhengHei,sans-serif}.E{cursor:default}.F{stroke-width:3}.G{fill:#42b883ff}.H{fill:#ffffffff}.I{font-size:14px}.J{font-weight:400}.K{stroke:#2196f3}.L{stroke:#1e88e5}.M{stroke:#00579bff}.N{stroke-linecap:none}.O{stroke:#1976d2}.P{fill:#0288d1ff}.Q{fill:#eeeeeeff}.R{font-weight:500}]]></style><g stroke-linecap="round" class="B"><g class="K"><path d="M360.5 118.1v13h-188q-8 0-8 8v30" class="F"/><g class="C"><path d="M164.5 218.1v13H96q-8 0-8 8v6"/><path d="M164.5 218.1v13h3.5q8 0 8 8v6"/><path d="M164.5 218.1v13h80q8 0 8 8v6"/></g></g><g class="L"><path d="M360.5 118.1v13h17q8 0 8 8v30" class="F"/><path d="M385.5 218.1v13h-35q-8 0-8 8v6" class="C"/></g><g class="O"><path d="M360.5 118.1v13h213q8 0 8 8v30" class="F"/><g class="C"><path d="M581.5 218.1v13h-35q-8 0-8 8v6"/><path d="M581.5 218.1v13h43q8 0 8 8v6"/></g></g><path d="M385.5 218.1v13h22q8 0 8 8v6" class="C L"/></g><path fill="#1a227eff" d="M301.25 51.6c-44.333 0-44.333 66.5 0 66.5h120c44.333 0 44.333-66.5 0-66.5h-120"/><path d="M301.25 51.6c-44.333 0-44.333 66.5 0 66.5h120c44.333 0 44.333-66.5 0-66.5h-120" class="B F M N"/><text fill="#fff" text-anchor="middle" font-size="24" font-weight="600" transform="translate(360.5 68.1)" class="D E"><tspan dy="24" style="white-space:pre" x="0">‎Object3D</tspan></text><path opacity="0" d="M97.5 222.1h134v22h-134z"/><path d="M107 169.6h116.5q8 0 8 8v32.5q0 8-8 8H107q-8 0-8-8v-32.5q0-8 8-8" class="P"/><path d="M107 169.6h116.5q8 0 8 8v32.5q0 8-8 8H107q-8 0-8-8v-32.5q0-8 8-8" class="B F M N"/><text font-size="18" transform="translate(118.5 181.1)" class="D E Q R"><tspan dy="18" style="white-space:pre" x="0">‎Transform</tspan></text><path d="M51 263l8.333-17.9h58.333L126 263l-8.333 17.9H59.333z" class="G"/><path d="M51 263l8.333-17.9h58.333L126 263l-8.333 17.9H59.333z" class="B C K"/><text transform="translate(60 253.5)" class="D E H I"><tspan font-weight="normal" dy="14" style="white-space:pre" x="0">‎Position</tspan></text><path d="M136 263l9-17.9h63l9 17.9-9 17.9h-63z" class="G"/><path d="M136 263l9-17.9h63l9 17.9-9 17.9h-63z" class="B C K"/><text transform="translate(146 253.5)" class="D E H I"><tspan font-weight="normal" dy="14" style="white-space:pre" x="0">‎Rotation</tspan></text><path d="M227 263l5.778-17.9h40.444L279 263l-5.778 17.9h-40.444z" class="G"/><path d="M227 263l5.778-17.9h40.444L279 263l-5.778 17.9h-40.444z" class="B C K"/><text transform="translate(234 253.5)" class="D E H I"><tspan font-weight="normal" dy="14" style="white-space:pre" x="0">‎Scale</tspan></text><path opacity="0" d="M317 222.1h137v22H317z"/><path d="M326.5 169.6H446q8 0 8 8v32.5q0 8-8 8H326.5q-8 0-8-8v-32.5q0-8 8-8" class="P"/><path d="M326.5 169.6H446q8 0 8 8v32.5q0 8-8 8H326.5q-8 0-8-8v-32.5q0-8 8-8" class="B F M N"/><text font-size="18" transform="translate(338 181.1)" class="D E Q R"><tspan dy="18" style="white-space:pre" x="0">‎PointLight</tspan></text><path d="M318 263l5.556-17.9h38.889L368 263l-5.556 17.9h-38.889z" class="G"/><path d="M318 263l5.556-17.9h38.889L368 263l-5.556 17.9h-38.889z" class="B C L"/><text transform="translate(325 253.5)" class="D E H I"><tspan font-weight="normal" dy="14" style="white-space:pre" x="0">‎Light</tspan></text><path opacity="0" d="M503 222.1h157v22H503z"/><path d="M512.5 169.6H652q8 0 8 8v32.5q0 8-8 8H512.5q-8 0-8-8v-32.5q0-8 8-8" class="P"/><path d="M512.5 169.6H652q8 0 8 8v32.5q0 8-8 8H512.5q-8 0-8-8v-32.5q0-8 8-8" class="B F M N"/><text font-size="18" transform="translate(524 181.1)" class="D E Q R"><tspan dy="18" style="white-space:pre" x="0">‎MeshRender</tspan></text><path d="M493 263l10.222-17.9h71.556L585 263l-10.222 17.9h-71.556z" class="G"/><path d="M493 263l10.222-17.9h71.556L585 263l-10.222 17.9h-71.556z" class="B C O"/><text transform="translate(504 253.5)" class="D E H I"><tspan font-weight="normal" dy="14" style="white-space:pre" x="0">‎Geometry</tspan></text><path d="M595 263l8.444-17.9h59.111L671 263l-8.444 17.9h-59.111z" class="G"/><path d="M595 263l8.444-17.9h59.111L671 263l-8.444 17.9h-59.111z" class="B C O"/><text transform="translate(604 253.5)" class="D E H I"><tspan font-weight="normal" dy="14" style="white-space:pre" x="0">‎Material</tspan></text><path d="M378 263l8.444-17.9h59.111L454 263l-8.444 17.9h-59.111z" class="G"/><path d="M378 263l8.444-17.9h59.111L454 263l-8.444 17.9h-59.111z" class="B C L"/><text transform="translate(387 253.5)" class="D E H I"><tspan font-weight="normal" dy="14" style="white-space:pre" x="0">‎Shadow</tspan></text></svg>