<svg xmlns="http://www.w3.org/2000/svg" xmlns:xlink="http://www.w3.org/1999/xlink" width="855" height="490" style="background-color:transparent" xmlns:v="https://vecta.io/nano"><style><![CDATA[.B{fill:none}.C{stroke:#00579bff}.D{stroke-linecap:none}.E{font-family:Montserrat,NeverMind,NeverMind,Microsoft YaHei,PingFang SC,Microsoft JhengHei,sans-serif}.F{cursor:default}.G{fill:#eeeeeeff}.H{stroke-width:2}.I{stroke-width:3}.J{font-size:14px}.K{font-weight:400}.L{fill:#0288d1ff}.M{font-size:18px}.N{font-weight:500}.O{fill:#19a719ff}.P{fill:#7986cbff}]]></style><g stroke-linecap="round" class="B"><g stroke="#2196f3"><path d="M427.5 118v13Q159 131 159 219" class="I"/><g class="H"><path d="M159 268h0v53m0 33h0c0 39.75-57 26.5-57 53"/><path d="M159 354h0c0 39.75 57 26.5 57 53"/></g></g><g stroke="#1e88e5"><path d="M427.5 118v13q-51 0-51 88" class="I"/><path d="M376.5 268h0v53" class="H"/></g><g class="I"><path stroke="#1976d2" d="M427.5 118v13q128 0 128 88"/><path d="M427.5 118v13q307 0 307 88" stroke="#1565c0"/></g><path stroke="#1565c0" d="M734.5 268h0v53m0 33h0v53" class="H"/></g><path fill="#1a227eff" d="M372.25 51.5c-44.333 0-44.333 66.5 0 66.5h112c44.333 0 44.333-66.5 0-66.5h-112"/><path d="M372.25 51.5c-44.333 0-44.333 66.5 0 66.5h112c44.333 0 44.333-66.5 0-66.5h-112" class="B C D I"/><text fill="#fff" text-anchor="middle" font-size="24" font-weight="600" transform="translate(427.5 68)" class="E F"><tspan dy="24" style="white-space:pre" x="0">‎Scene3D</tspan></text><path opacity="0" d="M88.5 272h141v48h-141z"/><use xlink:href="#B" class="L"/><use xlink:href="#B" class="B C D I"/><text transform="translate(116.5 231)" class="E F G M N"><tspan dy="18" style="white-space:pre" x="0">‎Object3D</tspan></text><path opacity="0" d="M107 358h104v48H107z"/><use xlink:href="#C" class="O"/><use xlink:href="#C" class="B C D H"/><text transform="translate(126 328)" class="E F G J"><tspan font-weight="normal" dy="14" style="white-space:pre" x="0">‎Object3D</tspan></text><use xlink:href="#C" x="-57" y="86" class="P"/><use xlink:href="#C" x="-57" y="86" class="B C D H"/><text transform="translate(69 414)" class="E F G J"><tspan font-weight="normal" dy="14" style="white-space:pre" x="0">‎Object3D</tspan></text><use xlink:href="#C" x="57" y="86" class="P"/><use xlink:href="#C" x="57" y="86" class="B C D H"/><text transform="translate(183 414)" class="E F G J"><tspan font-weight="normal" dy="14" style="white-space:pre" x="0">‎Object3D</tspan></text><path opacity="0" d="M306 272h141v48H306z"/><use xlink:href="#B" x="217.5" class="L"/><use xlink:href="#B" x="217.5" class="B C D I"/><text transform="translate(334 231)" class="E F G M N"><tspan dy="18" style="white-space:pre" x="0">‎Object3D</tspan></text><use xlink:href="#C" x="217.5" class="O"/><use xlink:href="#C" x="217.5" class="B C D H"/><text transform="translate(343.5 328)" class="E F G J"><tspan font-weight="normal" dy="14" style="white-space:pre" x="0">‎Object3D</tspan></text><use xlink:href="#B" x="396.5" class="L"/><use xlink:href="#B" x="396.5" class="B C D I"/><text transform="translate(513 231)" class="E F G M N"><tspan dy="18" style="white-space:pre" x="0">‎Object3D</tspan></text><path opacity="0" d="M664 272h141v48H664z"/><use xlink:href="#B" x="575.5" class="L"/><use xlink:href="#B" x="575.5" class="B C D I"/><text transform="translate(692 231)" class="E F G M N"><tspan dy="18" style="white-space:pre" x="0">‎Object3D</tspan></text><path opacity="0" d="M682.5 358h104v48h-104z"/><use xlink:href="#C" x="575.5" class="O"/><use xlink:href="#C" x="575.5" class="B C D H"/><text transform="translate(701.5 328)" class="E F G J"><tspan font-weight="normal" dy="14" style="white-space:pre" x="0">‎Object3D</tspan></text><use xlink:href="#C" x="575.5" y="86" class="P"/><use xlink:href="#C" x="575.5" y="86" class="B C D H"/><text transform="translate(701.5 414)" class="E F G J"><tspan font-weight="normal" dy="14" style="white-space:pre" x="0">‎Object3D</tspan></text><defs ><path id="B" d="M114.25 219.5c-32.333 0-32.333 48.5 0 48.5h91c32.333 0 32.333-48.5 0-48.5h-91"/><path id="C" d="M124.5 321c-22 0-22 33 0 33h70c22 0 22-33 0-33h-70"/></defs></svg>